<?xml version="1.0" encoding="UTF-8"?>
<svg xmlns="http://www.w3.org/2000/svg" viewBox="0 0 700 380" width="700" height="380">
  <defs>
    <linearGradient id="bgGrad" x1="0%" y1="0%" x2="100%" y2="100%">
      <stop offset="0%" stop-color="#0d1117"/>
      <stop offset="100%" stop-color="#161b22"/>
    </linearGradient>
  </defs>
  <rect width="100%" height="100%" fill="url(#bgGrad)"/>
  <g opacity="0.02" stroke="#f0f6fc"><line x1="0" y1="0" x2="0" y2="380"/><line x1="50" y1="0" x2="50" y2="380"/><line x1="100" y1="0" x2="100" y2="380"/><line x1="150" y1="0" x2="150" y2="380"/><line x1="200" y1="0" x2="200" y2="380"/><line x1="250" y1="0" x2="250" y2="380"/><line x1="300" y1="0" x2="300" y2="380"/><line x1="350" y1="0" x2="350" y2="380"/><line x1="400" y1="0" x2="400" y2="380"/><line x1="450" y1="0" x2="450" y2="380"/><line x1="500" y1="0" x2="500" y2="380"/><line x1="550" y1="0" x2="550" y2="380"/><line x1="600" y1="0" x2="600" y2="380"/><line x1="650" y1="0" x2="650" y2="380"/><line x1="700" y1="0" x2="700" y2="380"/><line x1="0" y1="0" x2="700" y2="0"/><line x1="0" y1="50" x2="700" y2="50"/><line x1="0" y1="100" x2="700" y2="100"/><line x1="0" y1="150" x2="700" y2="150"/><line x1="0" y1="200" x2="700" y2="200"/><line x1="0" y1="250" x2="700" y2="250"/><line x1="0" y1="300" x2="700" y2="300"/><line x1="0" y1="350" x2="700" y2="350"/></g>
  <ellipse cx="105" cy="95" rx="120" ry="80" fill="#58a6ff" opacity="0.03"/>
  <ellipse cx="595" cy="285" rx="100" ry="70" fill="#a371f7" opacity="0.03"/>
  
    
    <g transform="translate(180, 280)">
      <path d="M0,-85 L47.63,-112.5 L84.00200000000001,-91.5 L36.372,-64 Z" fill="#7ee09a" opacity="0.9"/>
      <path d="M0,-85 L36.372,-64 L36.372,21 L0,0 Z" fill="#3fb950" opacity="0.85"/>
      <path d="M36.372,-64 L84.00200000000001,-91.5 L84.00200000000001,-6.5 L36.372,21 Z" fill="#2d9a46" opacity="0.75"/>
      <circle cx="10.9116" cy="-68" r="4" fill="#3fb950"><animate attributeName="opacity" values="1;0.4;1" dur="1.5s" repeatCount="indefinite"/></circle>
      <circle cx="10.9116" cy="-51" r="4" fill="#3fb950"><animate attributeName="opacity" values="1;0.4;1" dur="2s" repeatCount="indefinite"/></circle>
      <line x1="18.186" y1="-12.75" x2="32.7348" y2="-12.75" stroke="#2d9a46" stroke-width="2" opacity="0.5"/><line x1="18.186" y1="-21.25" x2="32.7348" y2="-21.25" stroke="#2d9a46" stroke-width="2" opacity="0.5"/><line x1="18.186" y1="-29.749999999999996" x2="32.7348" y2="-29.749999999999996" stroke="#2d9a46" stroke-width="2" opacity="0.5"/><line x1="18.186" y1="-38.25" x2="32.7348" y2="-38.25" stroke="#2d9a46" stroke-width="2" opacity="0.5"/>
      <g><rect x="-13.314" y="10" width="63" height="16" rx="3" fill="#161b22"/><text x="18.186" y="22" text-anchor="middle" fill="#f0f6fc" font-size="9" font-family="'SF Mono', 'Fira Code', 'JetBrains Mono', 'Cascadia Code', Consolas, Monaco, 'Courier New', monospace">Production</text></g>
      <g><rect x="18.186" y="-69.7" width="28" height="12" rx="2" fill="#161b22"/><text x="20.0046" y="-62.05" fill="#79c0ff" font-size="8" font-family="'SF Mono', 'Fira Code', 'JetBrains Mono', 'Cascadia Code', Consolas, Monaco, 'Courier New', monospace">32%</text></g>
      
    </g>
    
  <g transform="translate(350, 120)">
    <circle r="50" fill="#3fb950" opacity="0.15"/>
    <path d="M-20,0 L-5,17.5 L20,-15" fill="none" stroke="#3fb950" stroke-width="3" stroke-linecap="round"/>
  </g>
    
  <g transform="translate(480, 80) scale(1.1)">
    <path d="M-45,12 Q-55,-5 -35,-18 Q-20,-32 5,-25 Q30,-32 42,-15 Q58,-2 48,12 Q38,22 0,22 Q-38,22 -45,12" fill="#79c0ff" fill-opacity="0.12" stroke="#79c0ff" stroke-width="1.5" stroke-opacity="0.4"/>
    <g><rect x="-13" y="-6" width="26" height="16" rx="3" fill="#161b22"/><text x="0" y="6" text-anchor="middle" fill="#79c0ff" font-size="10" font-weight="500" font-family="'SF Mono', 'Fira Code', 'JetBrains Mono', 'Cascadia Code', Consolas, Monaco, 'Courier New', monospace">CDN</text></g>
  </g>
    
    <path d="M260,220 Q305,110 350,150" fill="none" stroke="#3fb950" stroke-width="2" stroke-dasharray="6,4" opacity="0.6"><animate attributeName="stroke-dashoffset" from="0" to="-20" dur="1s" repeatCount="indefinite"/></path>
    <circle r="4" fill="#3fb950"><animateMotion dur="2s" repeatCount="indefinite" path="M260,220 Q305,110 350,150"/></circle>
    
    
    <path d="M350,150 Q395,70 440,110" fill="none" stroke="#79c0ff" stroke-width="2" stroke-dasharray="6,4" opacity="0.6"><animate attributeName="stroke-dashoffset" from="0" to="-20" dur="1s" repeatCount="indefinite"/></path>
    <circle r="4" fill="#79c0ff"><animateMotion dur="2s" repeatCount="indefinite" path="M350,150 Q395,70 440,110"/></circle>
    
    
    <g transform="translate(40, 60)">
      <rect width="90" height="55" rx="8" fill="#161b22" stroke="#30363d"/>
      <text x="10" y="18" fill="#8b949e" font-size="9" font-family="'SF Mono', 'Fira Code', 'JetBrains Mono', 'Cascadia Code', Consolas, Monaco, 'Courier New', monospace">Uptime</text>
      <text x="10" y="38" fill="#3fb950" font-size="18" font-weight="600" font-family="'SF Mono', 'Fira Code', 'JetBrains Mono', 'Cascadia Code', Consolas, Monaco, 'Courier New', monospace">100<tspan font-size="10" fill="#8b949e">%</tspan></text>
      <text x="75" y="38" fill="#8b949e" font-size="14" font-family="'SF Mono', 'Fira Code', 'JetBrains Mono', 'Cascadia Code', Consolas, Monaco, 'Courier New', monospace">→</text>
    </g>
    
    <g transform="translate(40, 125)">
      <rect width="90" height="55" rx="8" fill="#161b22" stroke="#30363d"/>
      <text x="10" y="18" fill="#8b949e" font-size="9" font-family="'SF Mono', 'Fira Code', 'JetBrains Mono', 'Cascadia Code', Consolas, Monaco, 'Courier New', monospace">Users</text>
      <text x="10" y="38" fill="#58a6ff" font-size="18" font-weight="600" font-family="'SF Mono', 'Fira Code', 'JetBrains Mono', 'Cascadia Code', Consolas, Monaco, 'Courier New', monospace">12.4<tspan font-size="10" fill="#8b949e">K</tspan></text>
      <text x="75" y="38" fill="#3fb950" font-size="14" font-family="'SF Mono', 'Fira Code', 'JetBrains Mono', 'Cascadia Code', Consolas, Monaco, 'Courier New', monospace">↑</text>
    </g>
    
    <g transform="translate(150, 60)">
      <rect width="90" height="55" rx="8" fill="#161b22" stroke="#30363d"/>
      <text x="10" y="18" fill="#8b949e" font-size="9" font-family="'SF Mono', 'Fira Code', 'JetBrains Mono', 'Cascadia Code', Consolas, Monaco, 'Courier New', monospace">Latency</text>
      <text x="10" y="38" fill="#3fb950" font-size="18" font-weight="600" font-family="'SF Mono', 'Fira Code', 'JetBrains Mono', 'Cascadia Code', Consolas, Monaco, 'Courier New', monospace">45<tspan font-size="10" fill="#8b949e">ms</tspan></text>
      <text x="75" y="38" fill="#f85149" font-size="14" font-family="'SF Mono', 'Fira Code', 'JetBrains Mono', 'Cascadia Code', Consolas, Monaco, 'Courier New', monospace">↓</text>
    </g>
    
    <g transform="translate(150, 125)">
      <rect width="90" height="55" rx="8" fill="#161b22" stroke="#30363d"/>
      <text x="10" y="18" fill="#8b949e" font-size="9" font-family="'SF Mono', 'Fira Code', 'JetBrains Mono', 'Cascadia Code', Consolas, Monaco, 'Courier New', monospace">Errors</text>
      <text x="10" y="38" fill="#3fb950" font-size="18" font-weight="600" font-family="'SF Mono', 'Fira Code', 'JetBrains Mono', 'Cascadia Code', Consolas, Monaco, 'Courier New', monospace">0<tspan font-size="10" fill="#8b949e"></tspan></text>
      <text x="75" y="38" fill="#8b949e" font-size="14" font-family="'SF Mono', 'Fira Code', 'JetBrains Mono', 'Cascadia Code', Consolas, Monaco, 'Courier New', monospace">→</text>
    </g>
    
    <g transform="translate(480, 180)">
      <rect x="-14" y="-14" width="174" height="28" rx="14" fill="#161b22" stroke="#3fb950" stroke-width="1" opacity="0.9"/>
      <circle r="10" fill="#3fb950" opacity="0.3"/>
      <text x="0" y="4" text-anchor="middle" fill="#3fb950" font-size="12" font-family="'SF Mono', 'Fira Code', 'JetBrains Mono', 'Cascadia Code', Consolas, Monaco, 'Courier New', monospace">✓</text>
      <text x="18" y="4" text-anchor="start" fill="#f0f6fc" font-size="10" font-family="'SF Mono', 'Fira Code', 'JetBrains Mono', 'Cascadia Code', Consolas, Monaco, 'Courier New', monospace">All systems operational</text>
    </g>
    
    <g transform="translate(480, 205)">
      <rect x="-14" y="-14" width="156" height="28" rx="14" fill="#161b22" stroke="#3fb950" stroke-width="1" opacity="0.9"/>
      <circle r="10" fill="#3fb950" opacity="0.3"/>
      <text x="0" y="4" text-anchor="middle" fill="#3fb950" font-size="12" font-family="'SF Mono', 'Fira Code', 'JetBrains Mono', 'Cascadia Code', Consolas, Monaco, 'Courier New', monospace">✓</text>
      <text x="18" y="4" text-anchor="start" fill="#f0f6fc" font-size="10" font-family="'SF Mono', 'Fira Code', 'JetBrains Mono', 'Cascadia Code', Consolas, Monaco, 'Courier New', monospace">Zero downtime deploy</text>
    </g>
    
    <g transform="translate(480, 230)">
      <rect x="-14" y="-14" width="120" height="28" rx="14" fill="#161b22" stroke="#3fb950" stroke-width="1" opacity="0.9"/>
      <circle r="10" fill="#3fb950" opacity="0.3"/>
      <text x="0" y="4" text-anchor="middle" fill="#3fb950" font-size="12" font-family="'SF Mono', 'Fira Code', 'JetBrains Mono', 'Cascadia Code', Consolas, Monaco, 'Courier New', monospace">✓</text>
      <text x="18" y="4" text-anchor="start" fill="#f0f6fc" font-size="10" font-family="'SF Mono', 'Fira Code', 'JetBrains Mono', 'Cascadia Code', Consolas, Monaco, 'Courier New', monospace">Rollback ready</text>
    </g>
    
    <g transform="translate(480, 260)">
      <rect width="170" height="70" rx="8" fill="#0d1117" stroke="#3fb950" stroke-width="1.5"/>
      <rect width="170" height="20" rx="8" fill="#3fb950" opacity="0.15"/>
      <text x="10" y="14" fill="#3fb950" font-size="10" font-family="'SF Mono', 'Fira Code', 'JetBrains Mono', 'Cascadia Code', Consolas, Monaco, 'Courier New', monospace">terminal</text>
      <text x="10" y="34" fill="#3fb950" font-size="10" font-family="'SF Mono', 'Fira Code', 'JetBrains Mono', 'Cascadia Code', Consolas, Monaco, 'Courier New', monospace">✓ Deployed v2.4.1</text><text x="10" y="48" fill="#3fb950" font-size="10" font-family="'SF Mono', 'Fira Code', 'JetBrains Mono', 'Cascadia Code', Consolas, Monaco, 'Courier New', monospace">✓ Health checks pass</text><text x="10" y="62" fill="#79c0ff" font-size="10" font-family="'SF Mono', 'Fira Code', 'JetBrains Mono', 'Cascadia Code', Consolas, Monaco, 'Courier New', monospace">✓ Monitoring active</text>
      <rect x="10" y="76" width="8" height="12" fill="#3fb950"><animate attributeName="opacity" values="1;0;1" dur="1s" repeatCount="indefinite"/></rect>
    </g>
    
    <g>
      <rect x="276.7" y="326" width="146.60000000000002" height="20" rx="3" fill="rgba(13,17,23,0.85)"/>
      <text x="350" y="340" text-anchor="middle" fill="#3fb950" font-size="12" font-family="'SF Mono', 'Fira Code', 'JetBrains Mono', 'Cascadia Code', Consolas, Monaco, 'Courier New', monospace">Deployment Successful</text>
    </g>
  
</svg>