<?xml version="1.0" encoding="UTF-8"?>
<svg xmlns="http://www.w3.org/2000/svg" viewBox="0 0 700 380" width="700" height="380">
  <defs>
    <linearGradient id="bgGrad" x1="0%" y1="0%" x2="100%" y2="100%">
      <stop offset="0%" stop-color="#0d1117"/>
      <stop offset="100%" stop-color="#161b22"/>
    </linearGradient>
  </defs>
  <rect width="100%" height="100%" fill="url(#bgGrad)"/>
  <g opacity="0.02" stroke="#f0f6fc"><line x1="0" y1="0" x2="0" y2="380"/><line x1="50" y1="0" x2="50" y2="380"/><line x1="100" y1="0" x2="100" y2="380"/><line x1="150" y1="0" x2="150" y2="380"/><line x1="200" y1="0" x2="200" y2="380"/><line x1="250" y1="0" x2="250" y2="380"/><line x1="300" y1="0" x2="300" y2="380"/><line x1="350" y1="0" x2="350" y2="380"/><line x1="400" y1="0" x2="400" y2="380"/><line x1="450" y1="0" x2="450" y2="380"/><line x1="500" y1="0" x2="500" y2="380"/><line x1="550" y1="0" x2="550" y2="380"/><line x1="600" y1="0" x2="600" y2="380"/><line x1="650" y1="0" x2="650" y2="380"/><line x1="700" y1="0" x2="700" y2="380"/><line x1="0" y1="0" x2="700" y2="0"/><line x1="0" y1="50" x2="700" y2="50"/><line x1="0" y1="100" x2="700" y2="100"/><line x1="0" y1="150" x2="700" y2="150"/><line x1="0" y1="200" x2="700" y2="200"/><line x1="0" y1="250" x2="700" y2="250"/><line x1="0" y1="300" x2="700" y2="300"/><line x1="0" y1="350" x2="700" y2="350"/></g>
  <ellipse cx="105" cy="95" rx="120" ry="80" fill="#58a6ff" opacity="0.03"/>
  <ellipse cx="595" cy="285" rx="100" ry="70" fill="#a371f7" opacity="0.03"/>
  
    
    <g transform="translate(150, 280)">
      <path d="M0,-80 L43.3,-105 L77.94,-85 L34.64,-60 Z" fill="#8ec5ff" opacity="0.9"/>
      <path d="M0,-80 L34.64,-60 L34.64,20 L0,0 Z" fill="#58a6ff" opacity="0.85"/>
      <path d="M34.64,-60 L77.94,-85 L77.94,-5 L34.64,20 Z" fill="#3d7cc9" opacity="0.75"/>
      <circle cx="10.392" cy="-64" r="4" fill="#3fb950"><animate attributeName="opacity" values="1;0.4;1" dur="1.5s" repeatCount="indefinite"/></circle>
      <circle cx="10.392" cy="-48" r="4" fill="#3fb950"><animate attributeName="opacity" values="1;0.4;1" dur="2s" repeatCount="indefinite"/></circle>
      <line x1="17.32" y1="-12" x2="31.176000000000002" y2="-12" stroke="#3d7cc9" stroke-width="2" opacity="0.5"/><line x1="17.32" y1="-20" x2="31.176000000000002" y2="-20" stroke="#3d7cc9" stroke-width="2" opacity="0.5"/><line x1="17.32" y1="-28" x2="31.176000000000002" y2="-28" stroke="#3d7cc9" stroke-width="2" opacity="0.5"/><line x1="17.32" y1="-36" x2="31.176000000000002" y2="-36" stroke="#3d7cc9" stroke-width="2" opacity="0.5"/>
      <g><rect x="5.07" y="10" width="24.5" height="16" rx="3" fill="#161b22"/><text x="17.32" y="22" text-anchor="middle" fill="#f0f6fc" font-size="9" font-family="'SF Mono', 'Fira Code', 'JetBrains Mono', 'Cascadia Code', Consolas, Monaco, 'Courier New', monospace">API</text></g>
      <g><rect x="17.32" y="-65.6" width="28" height="12" rx="2" fill="#161b22"/><text x="19.052000000000003" y="-58.4" fill="#79c0ff" font-size="8" font-family="'SF Mono', 'Fira Code', 'JetBrains Mono', 'Cascadia Code', Consolas, Monaco, 'Courier New', monospace">45%</text></g>
      
    </g>
    
  <g transform="translate(350, 60) scale(1.2)">
    <path d="M-45,12 Q-55,-5 -35,-18 Q-20,-32 5,-25 Q30,-32 42,-15 Q58,-2 48,12 Q38,22 0,22 Q-38,22 -45,12" fill="#79c0ff" fill-opacity="0.12" stroke="#79c0ff" stroke-width="1.5" stroke-opacity="0.4"/>
    <g><rect x="-19" y="-6" width="38" height="16" rx="3" fill="#161b22"/><text x="0" y="6" text-anchor="middle" fill="#79c0ff" font-size="10" font-weight="500" font-family="'SF Mono', 'Fira Code', 'JetBrains Mono', 'Cascadia Code', Consolas, Monaco, 'Courier New', monospace">Cloud</text></g>
  </g>
    
  <g transform="translate(500, 280)">
    <ellipse cx="0" cy="0" rx="45" ry="18" fill="#7c5cbf"/>
    <rect x="-45" y="-90" width="90" height="90" fill="#a371f7"/>
    <ellipse cx="0" cy="-90" rx="45" ry="18" fill="#c4a5f9"/>
    <ellipse cx="0" cy="-29.700000000000003" rx="45" ry="18" fill="none" stroke="#c4a5f9" stroke-width="1.5" opacity="0.4"/><ellipse cx="0" cy="-59.400000000000006" rx="45" ry="18" fill="none" stroke="#c4a5f9" stroke-width="1.5" opacity="0.4"/>
    <ellipse cx="0" cy="-90" rx="22.5" ry="9" fill="#c4a5f9" opacity="0.3"/>
    <g><rect x="-26" y="10" width="52" height="16" rx="3" fill="#161b22"/><text x="0" y="22" text-anchor="middle" fill="#f0f6fc" font-size="9" font-family="'SF Mono', 'Fira Code', 'JetBrains Mono', 'Cascadia Code', Consolas, Monaco, 'Courier New', monospace">Database</text></g>
  </g>
    
    <path d="M220,220 Q270,60 320,100" fill="none" stroke="#58a6ff" stroke-width="2" stroke-dasharray="6,4" opacity="0.6"><animate attributeName="stroke-dashoffset" from="0" to="-20" dur="1s" repeatCount="indefinite"/></path>
    <circle r="4" fill="#58a6ff"><animateMotion dur="2s" repeatCount="indefinite" path="M220,220 Q270,60 320,100"/></circle>
    <g><rect x="248.5" y="44" width="43" height="14" rx="3" fill="#161b22"/><text x="270" y="54" text-anchor="middle" fill="#58a6ff" font-size="8" font-family="'SF Mono', 'Fira Code', 'JetBrains Mono', 'Cascadia Code', Consolas, Monaco, 'Courier New', monospace">request</text></g>
    
    <path d="M380,100 Q420,60 460,200" fill="none" stroke="#a371f7" stroke-width="2" stroke-dasharray="6,4" opacity="0.6"><animate attributeName="stroke-dashoffset" from="0" to="-20" dur="1s" repeatCount="indefinite"/></path>
    <circle r="4" fill="#a371f7"><animateMotion dur="2s" repeatCount="indefinite" path="M380,100 Q420,60 460,200"/></circle>
    <g><rect x="403.5" y="44" width="33" height="14" rx="3" fill="#161b22"/><text x="420" y="54" text-anchor="middle" fill="#a371f7" font-size="8" font-family="'SF Mono', 'Fira Code', 'JetBrains Mono', 'Cascadia Code', Consolas, Monaco, 'Courier New', monospace">query</text></g>
    <g transform="translate(350, 280)"><path d="M15,0 L24.061380911341182,6.786011246626857 L23.09698831278217,9.567085809127244 L11.779753963211173,9.28640923964751 L10.606601717798213,10.606601717798211 L12.215531037423874,21.812400176819928 L9.567085809127246,23.09698831278217 L1.7630609618675654,14.896026854323893 L9.184850993605148e-16,15 L-6.786011246626855,24.061380911341182 L-9.567085809127244,23.09698831278217 L-9.286409239647512,11.779753963211173 L-10.606601717798211,10.606601717798213 L-21.812400176819928,12.21553103742387 L-23.09698831278217,9.567085809127247 L-14.896026854323893,1.763060961867563 L-15,1.8369701987210296e-15 L-24.061380911341185,-6.786011246626848 L-23.09698831278217,-9.567085809127242 L-11.779753963211178,-9.286409239647506 L-10.606601717798215,-10.606601717798211 L-12.215531037423883,-21.812400176819924 L-9.567085809127258,-23.096988312782162 L-1.7630609618675772,-14.89602685432389 L-2.7554552980815444e-15,-15 L6.786011246626847,-24.061380911341185 L9.56708580912725,-23.096988312782166 L9.286409239647499,-11.779753963211181 L10.606601717798211,-10.606601717798215 L21.812400176819924,-12.215531037423883 L23.096988312782162,-9.56708580912726 L14.89602685432389,-1.7630609618675783 Z" fill="#3fb950" opacity="0.8"><animateTransform attributeName="transform" type="rotate" from="0" to="360" dur="10s" repeatCount="indefinite"/></path><circle r="5" fill="#0d1117"/></g>
    
    <g transform="translate(40, 60)">
      <rect width="90" height="55" rx="8" fill="#161b22" stroke="#30363d"/>
      <text x="10" y="18" fill="#8b949e" font-size="9" font-family="'SF Mono', 'Fira Code', 'JetBrains Mono', 'Cascadia Code', Consolas, Monaco, 'Courier New', monospace">Requests</text>
      <text x="10" y="38" fill="#58a6ff" font-size="18" font-weight="600" font-family="'SF Mono', 'Fira Code', 'JetBrains Mono', 'Cascadia Code', Consolas, Monaco, 'Courier New', monospace">8.2<tspan font-size="10" fill="#8b949e">K/s</tspan></text>
      <text x="75" y="38" fill="#8b949e" font-size="14" font-family="'SF Mono', 'Fira Code', 'JetBrains Mono', 'Cascadia Code', Consolas, Monaco, 'Courier New', monospace">→</text>
    </g>
    
    <g transform="translate(40, 125)">
      <rect width="90" height="55" rx="8" fill="#161b22" stroke="#30363d"/>
      <text x="10" y="18" fill="#8b949e" font-size="9" font-family="'SF Mono', 'Fira Code', 'JetBrains Mono', 'Cascadia Code', Consolas, Monaco, 'Courier New', monospace">Latency</text>
      <text x="10" y="38" fill="#3fb950" font-size="18" font-weight="600" font-family="'SF Mono', 'Fira Code', 'JetBrains Mono', 'Cascadia Code', Consolas, Monaco, 'Courier New', monospace">12<tspan font-size="10" fill="#8b949e">ms</tspan></text>
      <text x="75" y="38" fill="#8b949e" font-size="14" font-family="'SF Mono', 'Fira Code', 'JetBrains Mono', 'Cascadia Code', Consolas, Monaco, 'Courier New', monospace">→</text>
    </g>
    
    <g transform="translate(40, 200)">
      <rect x="-14" y="-14" width="156" height="28" rx="14" fill="#161b22" stroke="#3fb950" stroke-width="1" opacity="0.9"/>
      <circle r="10" fill="#3fb950" opacity="0.3"/>
      <text x="0" y="4" text-anchor="middle" fill="#3fb950" font-size="12" font-family="'SF Mono', 'Fira Code', 'JetBrains Mono', 'Cascadia Code', Consolas, Monaco, 'Courier New', monospace">✓</text>
      <text x="18" y="4" text-anchor="start" fill="#f0f6fc" font-size="10" font-family="'SF Mono', 'Fira Code', 'JetBrains Mono', 'Cascadia Code', Consolas, Monaco, 'Courier New', monospace">All services healthy</text>
    </g>
    
    <g transform="translate(40, 225)">
      <rect x="-14" y="-14" width="150" height="28" rx="14" fill="#161b22" stroke="#58a6ff" stroke-width="1" opacity="0.9"/>
      <circle r="10" fill="#58a6ff" opacity="0.3"/>
      <text x="0" y="4" text-anchor="middle" fill="#58a6ff" font-size="12" font-family="'SF Mono', 'Fira Code', 'JetBrains Mono', 'Cascadia Code', Consolas, Monaco, 'Courier New', monospace">ℹ</text>
      <text x="18" y="4" text-anchor="start" fill="#f0f6fc" font-size="10" font-family="'SF Mono', 'Fira Code', 'JetBrains Mono', 'Cascadia Code', Consolas, Monaco, 'Courier New', monospace">Last deploy: 2h ago</text>
    </g>
    
    <g>
      <rect x="288.525" y="327" width="122.95" height="19" rx="3" fill="rgba(13,17,23,0.85)"/>
      <text x="350" y="340" text-anchor="middle" fill="#79c0ff" font-size="11" font-family="'SF Mono', 'Fira Code', 'JetBrains Mono', 'Cascadia Code', Consolas, Monaco, 'Courier New', monospace">System Architecture</text>
    </g>
  
</svg>