<?xml version="1.0" encoding="UTF-8"?>
<svg xmlns="http://www.w3.org/2000/svg" viewBox="0 0 700 380" width="700" height="380">
  <defs>
    <linearGradient id="bgGrad" x1="0%" y1="0%" x2="100%" y2="100%">
      <stop offset="0%" stop-color="#0d1117"/>
      <stop offset="100%" stop-color="#161b22"/>
    </linearGradient>
  </defs>
  <rect width="100%" height="100%" fill="url(#bgGrad)"/>
  <g opacity="0.02" stroke="#f0f6fc"><line x1="0" y1="0" x2="0" y2="380"/><line x1="50" y1="0" x2="50" y2="380"/><line x1="100" y1="0" x2="100" y2="380"/><line x1="150" y1="0" x2="150" y2="380"/><line x1="200" y1="0" x2="200" y2="380"/><line x1="250" y1="0" x2="250" y2="380"/><line x1="300" y1="0" x2="300" y2="380"/><line x1="350" y1="0" x2="350" y2="380"/><line x1="400" y1="0" x2="400" y2="380"/><line x1="450" y1="0" x2="450" y2="380"/><line x1="500" y1="0" x2="500" y2="380"/><line x1="550" y1="0" x2="550" y2="380"/><line x1="600" y1="0" x2="600" y2="380"/><line x1="650" y1="0" x2="650" y2="380"/><line x1="700" y1="0" x2="700" y2="380"/><line x1="0" y1="0" x2="700" y2="0"/><line x1="0" y1="50" x2="700" y2="50"/><line x1="0" y1="100" x2="700" y2="100"/><line x1="0" y1="150" x2="700" y2="150"/><line x1="0" y1="200" x2="700" y2="200"/><line x1="0" y1="250" x2="700" y2="250"/><line x1="0" y1="300" x2="700" y2="300"/><line x1="0" y1="350" x2="700" y2="350"/></g>
  <ellipse cx="105" cy="95" rx="120" ry="80" fill="#58a6ff" opacity="0.03"/>
  <ellipse cx="595" cy="285" rx="100" ry="70" fill="#a371f7" opacity="0.03"/>
  
    
    <g transform="translate(40, 60)">
      <rect width="200" height="130" rx="8" fill="#0d1117" stroke="#3fb950" stroke-width="1.5"/>
      <rect width="200" height="20" rx="8" fill="#3fb950" opacity="0.15"/>
      <text x="10" y="14" fill="#3fb950" font-size="10" font-family="'SF Mono', 'Fira Code', 'JetBrains Mono', 'Cascadia Code', Consolas, Monaco, 'Courier New', monospace">terminal</text>
      <text x="10" y="34" fill="#f0f6fc" font-size="10" font-family="'SF Mono', 'Fira Code', 'JetBrains Mono', 'Cascadia Code', Consolas, Monaco, 'Courier New', monospace">$ kubectl top pods</text><text x="10" y="48" fill="#8b949e" font-size="10" font-family="'SF Mono', 'Fira Code', 'JetBrains Mono', 'Cascadia Code', Consolas, Monaco, 'Courier New', monospace">NAME       CPU   MEM</text><text x="10" y="62" fill="#3fb950" font-size="10" font-family="'SF Mono', 'Fira Code', 'JetBrains Mono', 'Cascadia Code', Consolas, Monaco, 'Courier New', monospace">api-1      45%   1.2G</text><text x="10" y="76" fill="#3fb950" font-size="10" font-family="'SF Mono', 'Fira Code', 'JetBrains Mono', 'Cascadia Code', Consolas, Monaco, 'Courier New', monospace">api-2      38%   1.1G</text><text x="10" y="90" fill="#d29922" font-size="10" font-family="'SF Mono', 'Fira Code', 'JetBrains Mono', 'Cascadia Code', Consolas, Monaco, 'Courier New', monospace">worker-1   72%   2.1G</text><text x="10" y="104" fill="#79c0ff" font-size="10" font-family="'SF Mono', 'Fira Code', 'JetBrains Mono', 'Cascadia Code', Consolas, Monaco, 'Courier New', monospace">db-0       25%   4.0G</text>
      <rect x="10" y="118" width="8" height="12" fill="#3fb950"><animate attributeName="opacity" values="1;0;1" dur="1s" repeatCount="indefinite"/></rect>
    </g>
    
    <g transform="translate(280, 60)">
      <rect width="90" height="55" rx="8" fill="#161b22" stroke="#30363d"/>
      <text x="10" y="18" fill="#8b949e" font-size="9" font-family="'SF Mono', 'Fira Code', 'JetBrains Mono', 'Cascadia Code', Consolas, Monaco, 'Courier New', monospace">Uptime</text>
      <text x="10" y="38" fill="#3fb950" font-size="18" font-weight="600" font-family="'SF Mono', 'Fira Code', 'JetBrains Mono', 'Cascadia Code', Consolas, Monaco, 'Courier New', monospace">99.99<tspan font-size="10" fill="#8b949e">%</tspan></text>
      <text x="75" y="38" fill="#8b949e" font-size="14" font-family="'SF Mono', 'Fira Code', 'JetBrains Mono', 'Cascadia Code', Consolas, Monaco, 'Courier New', monospace">→</text>
    </g>
    
    <g transform="translate(390, 60)">
      <rect width="90" height="55" rx="8" fill="#161b22" stroke="#30363d"/>
      <text x="10" y="18" fill="#8b949e" font-size="9" font-family="'SF Mono', 'Fira Code', 'JetBrains Mono', 'Cascadia Code', Consolas, Monaco, 'Courier New', monospace">Alerts</text>
      <text x="10" y="38" fill="#3fb950" font-size="18" font-weight="600" font-family="'SF Mono', 'Fira Code', 'JetBrains Mono', 'Cascadia Code', Consolas, Monaco, 'Courier New', monospace">0<tspan font-size="10" fill="#8b949e"></tspan></text>
      <text x="75" y="38" fill="#8b949e" font-size="14" font-family="'SF Mono', 'Fira Code', 'JetBrains Mono', 'Cascadia Code', Consolas, Monaco, 'Courier New', monospace">→</text>
    </g>
    
    <g transform="translate(500, 60)">
      <rect width="90" height="55" rx="8" fill="#161b22" stroke="#30363d"/>
      <text x="10" y="18" fill="#8b949e" font-size="9" font-family="'SF Mono', 'Fira Code', 'JetBrains Mono', 'Cascadia Code', Consolas, Monaco, 'Courier New', monospace">P95</text>
      <text x="10" y="38" fill="#79c0ff" font-size="18" font-weight="600" font-family="'SF Mono', 'Fira Code', 'JetBrains Mono', 'Cascadia Code', Consolas, Monaco, 'Courier New', monospace">23<tspan font-size="10" fill="#8b949e">ms</tspan></text>
      <text x="75" y="38" fill="#f85149" font-size="14" font-family="'SF Mono', 'Fira Code', 'JetBrains Mono', 'Cascadia Code', Consolas, Monaco, 'Courier New', monospace">↓</text>
    </g>
    
  <g transform="translate(280, 140)">
    <rect width="100" height="8" rx="4" fill="#21262d"/>
    <rect width="45" height="8" rx="4" fill="#3fb950"/>
    <g><rect x="104" y="-3" width="33.5" height="14" rx="3" fill="#161b22"/><text x="108" y="7" fill="#8b949e" font-size="9" font-family="'SF Mono', 'Fira Code', 'JetBrains Mono', 'Cascadia Code', Consolas, Monaco, 'Courier New', monospace">api-1</text></g>
  </g>
    
  <g transform="translate(280, 165)">
    <rect width="100" height="8" rx="4" fill="#21262d"/>
    <rect width="38" height="8" rx="4" fill="#3fb950"/>
    <g><rect x="104" y="-3" width="33.5" height="14" rx="3" fill="#161b22"/><text x="108" y="7" fill="#8b949e" font-size="9" font-family="'SF Mono', 'Fira Code', 'JetBrains Mono', 'Cascadia Code', Consolas, Monaco, 'Courier New', monospace">api-2</text></g>
  </g>
    
  <g transform="translate(280, 190)">
    <rect width="100" height="8" rx="4" fill="#21262d"/>
    <rect width="72" height="8" rx="4" fill="#d29922"/>
    <g><rect x="104" y="-3" width="39" height="14" rx="3" fill="#161b22"/><text x="108" y="7" fill="#8b949e" font-size="9" font-family="'SF Mono', 'Fira Code', 'JetBrains Mono', 'Cascadia Code', Consolas, Monaco, 'Courier New', monospace">worker</text></g>
  </g>
    
  <g transform="translate(280, 215)">
    <rect width="100" height="8" rx="4" fill="#21262d"/>
    <rect width="25" height="8" rx="4" fill="#79c0ff"/>
    <g><rect x="104" y="-3" width="17" height="14" rx="3" fill="#161b22"/><text x="108" y="7" fill="#8b949e" font-size="9" font-family="'SF Mono', 'Fira Code', 'JetBrains Mono', 'Cascadia Code', Consolas, Monaco, 'Courier New', monospace">db</text></g>
  </g>
    
    <g transform="translate(520, 280)">
      <path d="M0,-80 L43.3,-105 L77.94,-85 L34.64,-60 Z" fill="#7ee09a" opacity="0.9"/>
      <path d="M0,-80 L34.64,-60 L34.64,20 L0,0 Z" fill="#3fb950" opacity="0.85"/>
      <path d="M34.64,-60 L77.94,-85 L77.94,-5 L34.64,20 Z" fill="#2d9a46" opacity="0.75"/>
      <circle cx="10.392" cy="-64" r="4" fill="#3fb950"><animate attributeName="opacity" values="1;0.4;1" dur="1.5s" repeatCount="indefinite"/></circle>
      <circle cx="10.392" cy="-48" r="4" fill="#3fb950"><animate attributeName="opacity" values="1;0.4;1" dur="2s" repeatCount="indefinite"/></circle>
      <line x1="17.32" y1="-12" x2="31.176000000000002" y2="-12" stroke="#2d9a46" stroke-width="2" opacity="0.5"/><line x1="17.32" y1="-20" x2="31.176000000000002" y2="-20" stroke="#2d9a46" stroke-width="2" opacity="0.5"/><line x1="17.32" y1="-28" x2="31.176000000000002" y2="-28" stroke="#2d9a46" stroke-width="2" opacity="0.5"/><line x1="17.32" y1="-36" x2="31.176000000000002" y2="-36" stroke="#2d9a46" stroke-width="2" opacity="0.5"/>
      <g><rect x="-5.93" y="10" width="46.5" height="16" rx="3" fill="#161b22"/><text x="17.32" y="22" text-anchor="middle" fill="#f0f6fc" font-size="9" font-family="'SF Mono', 'Fira Code', 'JetBrains Mono', 'Cascadia Code', Consolas, Monaco, 'Courier New', monospace">Grafana</text></g>
      <g><rect x="17.32" y="-65.6" width="28" height="12" rx="2" fill="#161b22"/><text x="19.052000000000003" y="-58.4" fill="#79c0ff" font-size="8" font-family="'SF Mono', 'Fira Code', 'JetBrains Mono', 'Cascadia Code', Consolas, Monaco, 'Courier New', monospace">12%</text></g>
      
    </g>
    
  <g transform="translate(520, 100) scale(0.8)">
    <path d="M-45,12 Q-55,-5 -35,-18 Q-20,-32 5,-25 Q30,-32 42,-15 Q58,-2 48,12 Q38,22 0,22 Q-38,22 -45,12" fill="#a371f7" fill-opacity="0.12" stroke="#a371f7" stroke-width="1.5" stroke-opacity="0.4"/>
    <g><rect x="-25" y="-6" width="50" height="16" rx="3" fill="#161b22"/><text x="0" y="6" text-anchor="middle" fill="#a371f7" font-size="10" font-weight="500" font-family="'SF Mono', 'Fira Code', 'JetBrains Mono', 'Cascadia Code', Consolas, Monaco, 'Courier New', monospace">Datadog</text></g>
  </g>
    
    <path d="M420,180 Q450,90 480,130" fill="none" stroke="#a371f7" stroke-width="2" stroke-dasharray="6,4" opacity="0.6"><animate attributeName="stroke-dashoffset" from="0" to="-20" dur="1s" repeatCount="indefinite"/></path>
    <circle r="4" fill="#a371f7"><animateMotion dur="2s" repeatCount="indefinite" path="M420,180 Q450,90 480,130"/></circle>
    <g><rect x="428.5" y="74" width="43" height="14" rx="3" fill="#161b22"/><text x="450" y="84" text-anchor="middle" fill="#a371f7" font-size="8" font-family="'SF Mono', 'Fira Code', 'JetBrains Mono', 'Cascadia Code', Consolas, Monaco, 'Courier New', monospace">metrics</text></g>
    
    <g transform="translate(40, 220)">
      <rect x="-14" y="-14" width="132" height="28" rx="14" fill="#161b22" stroke="#3fb950" stroke-width="1" opacity="0.9"/>
      <circle r="10" fill="#3fb950" opacity="0.3"/>
      <text x="0" y="4" text-anchor="middle" fill="#3fb950" font-size="12" font-family="'SF Mono', 'Fira Code', 'JetBrains Mono', 'Cascadia Code', Consolas, Monaco, 'Courier New', monospace">✓</text>
      <text x="18" y="4" text-anchor="start" fill="#f0f6fc" font-size="10" font-family="'SF Mono', 'Fira Code', 'JetBrains Mono', 'Cascadia Code', Consolas, Monaco, 'Courier New', monospace">All pods healthy</text>
    </g>
    
    <g transform="translate(40, 245)">
      <rect x="-14" y="-14" width="132" height="28" rx="14" fill="#161b22" stroke="#58a6ff" stroke-width="1" opacity="0.9"/>
      <circle r="10" fill="#58a6ff" opacity="0.3"/>
      <text x="0" y="4" text-anchor="middle" fill="#58a6ff" font-size="12" font-family="'SF Mono', 'Fira Code', 'JetBrains Mono', 'Cascadia Code', Consolas, Monaco, 'Courier New', monospace">ℹ</text>
      <text x="18" y="4" text-anchor="start" fill="#f0f6fc" font-size="10" font-family="'SF Mono', 'Fira Code', 'JetBrains Mono', 'Cascadia Code', Consolas, Monaco, 'Courier New', monospace">Auto-scale ready</text>
    </g>
    
    <g transform="translate(40, 270)">
      <rect x="-14" y="-14" width="120" height="28" rx="14" fill="#161b22" stroke="#3fb950" stroke-width="1" opacity="0.9"/>
      <circle r="10" fill="#3fb950" opacity="0.3"/>
      <text x="0" y="4" text-anchor="middle" fill="#3fb950" font-size="12" font-family="'SF Mono', 'Fira Code', 'JetBrains Mono', 'Cascadia Code', Consolas, Monaco, 'Courier New', monospace">✓</text>
      <text x="18" y="4" text-anchor="start" fill="#f0f6fc" font-size="10" font-family="'SF Mono', 'Fira Code', 'JetBrains Mono', 'Cascadia Code', Consolas, Monaco, 'Courier New', monospace">Logs streaming</text>
    </g>
    
    <g>
      <rect x="276.425" y="327" width="147.15" height="19" rx="3" fill="rgba(13,17,23,0.85)"/>
      <text x="350" y="340" text-anchor="middle" fill="#a371f7" font-size="11" font-family="'SF Mono', 'Fira Code', 'JetBrains Mono', 'Cascadia Code', Consolas, Monaco, 'Courier New', monospace">Observability Dashboard</text>
    </g>
  
</svg>