<?xml version="1.0" encoding="UTF-8"?>
<svg xmlns="http://www.w3.org/2000/svg" viewBox="0 0 700 380" width="700" height="380">
  <defs>
    <linearGradient id="bgGrad" x1="0%" y1="0%" x2="100%" y2="100%">
      <stop offset="0%" stop-color="#0d1117"/>
      <stop offset="100%" stop-color="#161b22"/>
    </linearGradient>
  </defs>
  <rect width="100%" height="100%" fill="url(#bgGrad)"/>
  <g opacity="0.02" stroke="#f0f6fc"><line x1="0" y1="0" x2="0" y2="380"/><line x1="50" y1="0" x2="50" y2="380"/><line x1="100" y1="0" x2="100" y2="380"/><line x1="150" y1="0" x2="150" y2="380"/><line x1="200" y1="0" x2="200" y2="380"/><line x1="250" y1="0" x2="250" y2="380"/><line x1="300" y1="0" x2="300" y2="380"/><line x1="350" y1="0" x2="350" y2="380"/><line x1="400" y1="0" x2="400" y2="380"/><line x1="450" y1="0" x2="450" y2="380"/><line x1="500" y1="0" x2="500" y2="380"/><line x1="550" y1="0" x2="550" y2="380"/><line x1="600" y1="0" x2="600" y2="380"/><line x1="650" y1="0" x2="650" y2="380"/><line x1="700" y1="0" x2="700" y2="380"/><line x1="0" y1="0" x2="700" y2="0"/><line x1="0" y1="50" x2="700" y2="50"/><line x1="0" y1="100" x2="700" y2="100"/><line x1="0" y1="150" x2="700" y2="150"/><line x1="0" y1="200" x2="700" y2="200"/><line x1="0" y1="250" x2="700" y2="250"/><line x1="0" y1="300" x2="700" y2="300"/><line x1="0" y1="350" x2="700" y2="350"/></g>
  <ellipse cx="105" cy="95" rx="120" ry="80" fill="#58a6ff" opacity="0.03"/>
  <ellipse cx="595" cy="285" rx="100" ry="70" fill="#a371f7" opacity="0.03"/>
  
    
    <g transform="translate(120, 260)">
      <path d="M0,-80 L43.3,-105 L77.94,-85 L34.64,-60 Z" fill="#8ec5ff" opacity="0.9"/>
      <path d="M0,-80 L34.64,-60 L34.64,20 L0,0 Z" fill="#58a6ff" opacity="0.85"/>
      <path d="M34.64,-60 L77.94,-85 L77.94,-5 L34.64,20 Z" fill="#3d7cc9" opacity="0.75"/>
      <circle cx="10.392" cy="-64" r="4" fill="#3fb950"><animate attributeName="opacity" values="1;0.4;1" dur="1.5s" repeatCount="indefinite"/></circle>
      <circle cx="10.392" cy="-48" r="4" fill="#3fb950"><animate attributeName="opacity" values="1;0.4;1" dur="2s" repeatCount="indefinite"/></circle>
      <line x1="17.32" y1="-12" x2="31.176000000000002" y2="-12" stroke="#3d7cc9" stroke-width="2" opacity="0.5"/><line x1="17.32" y1="-20" x2="31.176000000000002" y2="-20" stroke="#3d7cc9" stroke-width="2" opacity="0.5"/><line x1="17.32" y1="-28" x2="31.176000000000002" y2="-28" stroke="#3d7cc9" stroke-width="2" opacity="0.5"/><line x1="17.32" y1="-36" x2="31.176000000000002" y2="-36" stroke="#3d7cc9" stroke-width="2" opacity="0.5"/>
      <g><rect x="-5.93" y="10" width="46.5" height="16" rx="3" fill="#161b22"/><text x="17.32" y="22" text-anchor="middle" fill="#f0f6fc" font-size="9" font-family="'SF Mono', 'Fira Code', 'JetBrains Mono', 'Cascadia Code', Consolas, Monaco, 'Courier New', monospace">Gateway</text></g>
      <g><rect x="17.32" y="-65.6" width="28" height="12" rx="2" fill="#161b22"/><text x="19.052000000000003" y="-58.4" fill="#79c0ff" font-size="8" font-family="'SF Mono', 'Fira Code', 'JetBrains Mono', 'Cascadia Code', Consolas, Monaco, 'Courier New', monospace">28%</text></g>
      
    </g>
    
    <g transform="translate(280, 260)">
      <path d="M0,-80 L43.3,-105 L77.94,-85 L34.64,-60 Z" fill="#c4a5f9" opacity="0.9"/>
      <path d="M0,-80 L34.64,-60 L34.64,20 L0,0 Z" fill="#a371f7" opacity="0.85"/>
      <path d="M34.64,-60 L77.94,-85 L77.94,-5 L34.64,20 Z" fill="#7c5cbf" opacity="0.75"/>
      <circle cx="10.392" cy="-64" r="4" fill="#3fb950"><animate attributeName="opacity" values="1;0.4;1" dur="1.5s" repeatCount="indefinite"/></circle>
      <circle cx="10.392" cy="-48" r="4" fill="#3fb950"><animate attributeName="opacity" values="1;0.4;1" dur="2s" repeatCount="indefinite"/></circle>
      <line x1="17.32" y1="-12" x2="31.176000000000002" y2="-12" stroke="#7c5cbf" stroke-width="2" opacity="0.5"/><line x1="17.32" y1="-20" x2="31.176000000000002" y2="-20" stroke="#7c5cbf" stroke-width="2" opacity="0.5"/><line x1="17.32" y1="-28" x2="31.176000000000002" y2="-28" stroke="#7c5cbf" stroke-width="2" opacity="0.5"/><line x1="17.32" y1="-36" x2="31.176000000000002" y2="-36" stroke="#7c5cbf" stroke-width="2" opacity="0.5"/>
      <g><rect x="2.3200000000000003" y="10" width="30" height="16" rx="3" fill="#161b22"/><text x="17.32" y="22" text-anchor="middle" fill="#f0f6fc" font-size="9" font-family="'SF Mono', 'Fira Code', 'JetBrains Mono', 'Cascadia Code', Consolas, Monaco, 'Courier New', monospace">Auth</text></g>
      <g><rect x="17.32" y="-65.6" width="28" height="12" rx="2" fill="#161b22"/><text x="19.052000000000003" y="-58.4" fill="#79c0ff" font-size="8" font-family="'SF Mono', 'Fira Code', 'JetBrains Mono', 'Cascadia Code', Consolas, Monaco, 'Courier New', monospace">15%</text></g>
      
    </g>
    
    <g transform="translate(440, 260)">
      <path d="M0,-80 L43.3,-105 L77.94,-85 L34.64,-60 Z" fill="#7ee09a" opacity="0.9"/>
      <path d="M0,-80 L34.64,-60 L34.64,20 L0,0 Z" fill="#3fb950" opacity="0.85"/>
      <path d="M34.64,-60 L77.94,-85 L77.94,-5 L34.64,20 Z" fill="#2d9a46" opacity="0.75"/>
      <circle cx="10.392" cy="-64" r="4" fill="#3fb950"><animate attributeName="opacity" values="1;0.4;1" dur="1.5s" repeatCount="indefinite"/></circle>
      <circle cx="10.392" cy="-48" r="4" fill="#3fb950"><animate attributeName="opacity" values="1;0.4;1" dur="2s" repeatCount="indefinite"/></circle>
      <line x1="17.32" y1="-12" x2="31.176000000000002" y2="-12" stroke="#2d9a46" stroke-width="2" opacity="0.5"/><line x1="17.32" y1="-20" x2="31.176000000000002" y2="-20" stroke="#2d9a46" stroke-width="2" opacity="0.5"/><line x1="17.32" y1="-28" x2="31.176000000000002" y2="-28" stroke="#2d9a46" stroke-width="2" opacity="0.5"/><line x1="17.32" y1="-36" x2="31.176000000000002" y2="-36" stroke="#2d9a46" stroke-width="2" opacity="0.5"/>
      <g><rect x="5.07" y="10" width="24.5" height="16" rx="3" fill="#161b22"/><text x="17.32" y="22" text-anchor="middle" fill="#f0f6fc" font-size="9" font-family="'SF Mono', 'Fira Code', 'JetBrains Mono', 'Cascadia Code', Consolas, Monaco, 'Courier New', monospace">API</text></g>
      <g><rect x="17.32" y="-65.6" width="28" height="12" rx="2" fill="#161b22"/><text x="19.052000000000003" y="-58.4" fill="#79c0ff" font-size="8" font-family="'SF Mono', 'Fira Code', 'JetBrains Mono', 'Cascadia Code', Consolas, Monaco, 'Courier New', monospace">42%</text></g>
      
    </g>
    
    <path d="M180,200 L240,200" fill="none" stroke="#79c0ff" stroke-width="2" stroke-dasharray="6,4" opacity="0.6"><animate attributeName="stroke-dashoffset" from="0" to="-20" dur="1s" repeatCount="indefinite"/></path>
    <circle r="4" fill="#79c0ff"><animateMotion dur="2s" repeatCount="indefinite" path="M180,200 L240,200"/></circle>
    <g><rect x="198.5" y="184" width="23" height="14" rx="3" fill="#161b22"/><text x="210" y="194" text-anchor="middle" fill="#79c0ff" font-size="8" font-family="'SF Mono', 'Fira Code', 'JetBrains Mono', 'Cascadia Code', Consolas, Monaco, 'Courier New', monospace">JWT</text></g>
    
    <path d="M340,200 L400,200" fill="none" stroke="#3fb950" stroke-width="2" stroke-dasharray="6,4" opacity="0.6"><animate attributeName="stroke-dashoffset" from="0" to="-20" dur="1s" repeatCount="indefinite"/></path>
    <circle r="4" fill="#3fb950"><animateMotion dur="2s" repeatCount="indefinite" path="M340,200 L400,200"/></circle>
    <g><rect x="356" y="184" width="28" height="14" rx="3" fill="#161b22"/><text x="370" y="194" text-anchor="middle" fill="#3fb950" font-size="8" font-family="'SF Mono', 'Fira Code', 'JetBrains Mono', 'Cascadia Code', Consolas, Monaco, 'Courier New', monospace">REST</text></g>
    
    <g transform="translate(480, 60)">
      <rect width="170" height="100" rx="8" fill="#161b22" stroke="#30363d"/>
      <rect width="170" height="22" rx="8" fill="#21262d"/>
      <circle cx="12" cy="11" r="4" fill="#f85149" opacity="0.8"/><circle cx="26" cy="11" r="4" fill="#d29922" opacity="0.8"/><circle cx="40" cy="11" r="4" fill="#3fb950" opacity="0.8"/>
      <text x="85" y="15" text-anchor="middle" fill="#484f58" font-size="9" font-family="'SF Mono', 'Fira Code', 'JetBrains Mono', 'Cascadia Code', Consolas, Monaco, 'Courier New', monospace">main.ts</text>
      <text x="10" y="36" fill="#79c0ff" font-size="10" font-family="'SF Mono', 'Fira Code', 'JetBrains Mono', 'Cascadia Code', Consolas, Monaco, 'Courier New', monospace">GET /api/v2/users</text><text x="10" y="50" fill="#a371f7" font-size="10" font-family="'SF Mono', 'Fira Code', 'JetBrains Mono', 'Cascadia Code', Consolas, Monaco, 'Courier New', monospace">Authorization: Bearer</text><text x="10" y="64" fill="#3fb950" font-size="10" font-family="'SF Mono', 'Fira Code', 'JetBrains Mono', 'Cascadia Code', Consolas, Monaco, 'Courier New', monospace">→ 200 OK (12ms)</text><text x="10" y="78" fill="#f0f6fc" font-size="10" font-family="'SF Mono', 'Fira Code', 'JetBrains Mono', 'Cascadia Code', Consolas, Monaco, 'Courier New', monospace">{ "users": [...] }</text>
    </g>
    
    <g transform="translate(40, 60)">
      <rect width="90" height="55" rx="8" fill="#161b22" stroke="#30363d"/>
      <text x="10" y="18" fill="#8b949e" font-size="9" font-family="'SF Mono', 'Fira Code', 'JetBrains Mono', 'Cascadia Code', Consolas, Monaco, 'Courier New', monospace">RPS</text>
      <text x="10" y="38" fill="#58a6ff" font-size="18" font-weight="600" font-family="'SF Mono', 'Fira Code', 'JetBrains Mono', 'Cascadia Code', Consolas, Monaco, 'Courier New', monospace">8.4<tspan font-size="10" fill="#8b949e">K</tspan></text>
      <text x="75" y="38" fill="#3fb950" font-size="14" font-family="'SF Mono', 'Fira Code', 'JetBrains Mono', 'Cascadia Code', Consolas, Monaco, 'Courier New', monospace">↑</text>
    </g>
    
    <g transform="translate(40, 125)">
      <rect width="90" height="55" rx="8" fill="#161b22" stroke="#30363d"/>
      <text x="10" y="18" fill="#8b949e" font-size="9" font-family="'SF Mono', 'Fira Code', 'JetBrains Mono', 'Cascadia Code', Consolas, Monaco, 'Courier New', monospace">P99</text>
      <text x="10" y="38" fill="#3fb950" font-size="18" font-weight="600" font-family="'SF Mono', 'Fira Code', 'JetBrains Mono', 'Cascadia Code', Consolas, Monaco, 'Courier New', monospace">45<tspan font-size="10" fill="#8b949e">ms</tspan></text>
      <text x="75" y="38" fill="#f85149" font-size="14" font-family="'SF Mono', 'Fira Code', 'JetBrains Mono', 'Cascadia Code', Consolas, Monaco, 'Courier New', monospace">↓</text>
    </g>
    
    <g transform="translate(150, 60)">
      <rect width="90" height="55" rx="8" fill="#161b22" stroke="#30363d"/>
      <text x="10" y="18" fill="#8b949e" font-size="9" font-family="'SF Mono', 'Fira Code', 'JetBrains Mono', 'Cascadia Code', Consolas, Monaco, 'Courier New', monospace">Success</text>
      <text x="10" y="38" fill="#3fb950" font-size="18" font-weight="600" font-family="'SF Mono', 'Fira Code', 'JetBrains Mono', 'Cascadia Code', Consolas, Monaco, 'Courier New', monospace">99.9<tspan font-size="10" fill="#8b949e">%</tspan></text>
      <text x="75" y="38" fill="#8b949e" font-size="14" font-family="'SF Mono', 'Fira Code', 'JetBrains Mono', 'Cascadia Code', Consolas, Monaco, 'Courier New', monospace">→</text>
    </g>
    
    <g transform="translate(150, 125)">
      <rect width="90" height="55" rx="8" fill="#161b22" stroke="#30363d"/>
      <text x="10" y="18" fill="#8b949e" font-size="9" font-family="'SF Mono', 'Fira Code', 'JetBrains Mono', 'Cascadia Code', Consolas, Monaco, 'Courier New', monospace">Cache</text>
      <text x="10" y="38" fill="#79c0ff" font-size="18" font-weight="600" font-family="'SF Mono', 'Fira Code', 'JetBrains Mono', 'Cascadia Code', Consolas, Monaco, 'Courier New', monospace">87<tspan font-size="10" fill="#8b949e">%</tspan></text>
      <text x="75" y="38" fill="#3fb950" font-size="14" font-family="'SF Mono', 'Fira Code', 'JetBrains Mono', 'Cascadia Code', Consolas, Monaco, 'Courier New', monospace">↑</text>
    </g>
    
    <g transform="translate(500, 180)">
      <rect x="-14" y="-14" width="120" height="28" rx="14" fill="#161b22" stroke="#3fb950" stroke-width="1" opacity="0.9"/>
      <circle r="10" fill="#3fb950" opacity="0.3"/>
      <text x="0" y="4" text-anchor="middle" fill="#3fb950" font-size="12" font-family="'SF Mono', 'Fira Code', 'JetBrains Mono', 'Cascadia Code', Consolas, Monaco, 'Courier New', monospace">✓</text>
      <text x="18" y="4" text-anchor="start" fill="#f0f6fc" font-size="10" font-family="'SF Mono', 'Fira Code', 'JetBrains Mono', 'Cascadia Code', Consolas, Monaco, 'Courier New', monospace">Rate limit: OK</text>
    </g>
    
    <g transform="translate(500, 205)">
      <rect x="-14" y="-14" width="102" height="28" rx="14" fill="#161b22" stroke="#3fb950" stroke-width="1" opacity="0.9"/>
      <circle r="10" fill="#3fb950" opacity="0.3"/>
      <text x="0" y="4" text-anchor="middle" fill="#3fb950" font-size="12" font-family="'SF Mono', 'Fira Code', 'JetBrains Mono', 'Cascadia Code', Consolas, Monaco, 'Courier New', monospace">✓</text>
      <text x="18" y="4" text-anchor="start" fill="#f0f6fc" font-size="10" font-family="'SF Mono', 'Fira Code', 'JetBrains Mono', 'Cascadia Code', Consolas, Monaco, 'Courier New', monospace">Auth: Valid</text>
    </g>
    
    <g>
      <line x1="350" y1="100" x2="286.5850460786852" y2="172.47423305293123" stroke="#a371f7" stroke-width="2"/>
      <polygon points="280,180 283.76146887719176,168.60476626453334 290.7950809311008,174.75917681170372" fill="#a371f7"/>
      <g><rect x="289" y="124" width="52" height="14" rx="3" fill="#161b22"/><text x="315" y="134" text-anchor="middle" fill="#a371f7" font-size="9" font-family="'SF Mono', 'Fira Code', 'JetBrains Mono', 'Cascadia Code', Consolas, Monaco, 'Courier New', monospace">validate</text></g>
    </g>
    
    <g>
      <rect x="223.39999999999998" y="317" width="153.20000000000002" height="19" rx="3" fill="rgba(13,17,23,0.85)"/>
      <text x="300" y="330" text-anchor="middle" fill="#58a6ff" font-size="11" font-family="'SF Mono', 'Fira Code', 'JetBrains Mono', 'Cascadia Code', Consolas, Monaco, 'Courier New', monospace">API Gateway Architecture</text>
    </g>
  
</svg>