<?xml version="1.0" encoding="UTF-8"?>
<svg xmlns="http://www.w3.org/2000/svg" viewBox="0 0 700 380" width="700" height="380">
  <defs>
    <linearGradient id="bgGrad" x1="0%" y1="0%" x2="100%" y2="100%">
      <stop offset="0%" stop-color="#0d1117"/>
      <stop offset="100%" stop-color="#161b22"/>
    </linearGradient>
  </defs>
  <rect width="100%" height="100%" fill="url(#bgGrad)"/>
  <g opacity="0.02" stroke="#f0f6fc"><line x1="0" y1="0" x2="0" y2="380"/><line x1="50" y1="0" x2="50" y2="380"/><line x1="100" y1="0" x2="100" y2="380"/><line x1="150" y1="0" x2="150" y2="380"/><line x1="200" y1="0" x2="200" y2="380"/><line x1="250" y1="0" x2="250" y2="380"/><line x1="300" y1="0" x2="300" y2="380"/><line x1="350" y1="0" x2="350" y2="380"/><line x1="400" y1="0" x2="400" y2="380"/><line x1="450" y1="0" x2="450" y2="380"/><line x1="500" y1="0" x2="500" y2="380"/><line x1="550" y1="0" x2="550" y2="380"/><line x1="600" y1="0" x2="600" y2="380"/><line x1="650" y1="0" x2="650" y2="380"/><line x1="700" y1="0" x2="700" y2="380"/><line x1="0" y1="0" x2="700" y2="0"/><line x1="0" y1="50" x2="700" y2="50"/><line x1="0" y1="100" x2="700" y2="100"/><line x1="0" y1="150" x2="700" y2="150"/><line x1="0" y1="200" x2="700" y2="200"/><line x1="0" y1="250" x2="700" y2="250"/><line x1="0" y1="300" x2="700" y2="300"/><line x1="0" y1="350" x2="700" y2="350"/></g>
  <ellipse cx="105" cy="95" rx="120" ry="80" fill="#58a6ff" opacity="0.03"/>
  <ellipse cx="595" cy="285" rx="100" ry="70" fill="#a371f7" opacity="0.03"/>
  
    <g transform="translate(120, 160)"><path d="M30,0 L48.122761822682364,13.572022493253714 L46.19397662556434,19.134171618254488 L23.559507926422345,18.57281847929502 L21.213203435596427,21.213203435596423 L24.43106207484775,43.624800353639856 L19.13417161825449,46.19397662556434 L3.526121923735131,29.792053708647785 L1.8369701987210296e-15,30 L-13.57202249325371,48.122761822682364 L-19.134171618254488,46.19397662556434 L-18.572818479295023,23.559507926422345 L-21.213203435596423,21.213203435596427 L-43.624800353639856,24.43106207484774 L-46.19397662556434,19.134171618254495 L-29.792053708647785,3.526121923735126 L-30,3.673940397442059e-15 L-48.12276182268237,-13.572022493253696 L-46.19397662556434,-19.134171618254484 L-23.559507926422356,-18.572818479295012 L-21.21320343559643,-21.213203435596423 L-24.431062074847766,-43.62480035363985 L-19.134171618254516,-46.193976625564325 L-3.5261219237351544,-29.79205370864778 L-5.510910596163089e-15,-30 L13.572022493253694,-48.12276182268237 L19.1341716182545,-46.19397662556433 L18.572818479294998,-23.559507926422363 L21.213203435596423,-21.21320343559643 L43.62480035363985,-24.431062074847766 L46.193976625564325,-19.13417161825452 L29.79205370864778,-3.5261219237351566 Z" fill="#58a6ff" opacity="0.8"><animateTransform attributeName="transform" type="rotate" from="0" to="360" dur="5s" repeatCount="indefinite"/></path><circle r="10" fill="#0d1117"/></g>
    <g transform="translate(220, 200)"><path d="M24,0 L38.498209458145894,10.85761799460297 L36.95518130045147,15.307337294603592 L18.847606341137876,14.858254783436013 L16.97056274847714,16.97056274847714 L19.5448496598782,34.89984028291188 L15.307337294603593,36.95518130045147 L2.820897538988105,23.83364296691823 L1.469576158976824e-15,24 L-10.857617994602968,38.498209458145894 L-15.307337294603588,36.95518130045147 L-14.858254783436017,18.847606341137876 L-16.97056274847714,16.97056274847714 L-34.89984028291189,19.544849659878196 L-36.95518130045147,15.307337294603595 L-23.83364296691823,2.8208975389881012 L-24,2.939152317953648e-15 L-38.498209458145894,-10.857617994602958 L-36.95518130045147,-15.307337294603586 L-18.847606341137883,-14.85825478343601 L-16.970562748477146,-16.97056274847714 L-19.54484965987821,-34.89984028291188 L-15.307337294603613,-36.95518130045146 L-2.820897538988123,-23.83364296691823 L-4.408728476930471e-15,-24 L10.857617994602954,-38.498209458145894 L15.3073372946036,-36.955181300451464 L14.858254783436,-18.847606341137894 L16.970562748477136,-16.970562748477146 L34.89984028291188,-19.544849659878214 L36.95518130045146,-15.307337294603617 L23.83364296691823,-2.8208975389881252 Z" fill="#a371f7" opacity="0.8"><animateTransform attributeName="transform" type="rotate" from="0" to="360" dur="7s" repeatCount="indefinite"/></path><circle r="8" fill="#0d1117"/></g>
    <g transform="translate(310, 160)"><path d="M27,0 L43.31048564041413,12.214820243928342 L41.5745789630079,17.22075445642904 L21.203557133780112,16.715536631365516 L19.091883092036785,19.09188309203678 L21.987955867362974,39.26232031827587 L17.22075445642904,41.5745789630079 L3.1735097313616176,26.81284833778301 L1.6532731788489269e-15,27 L-12.21482024392834,43.31048564041413 L-17.220754456429038,41.5745789630079 L-16.71553663136552,21.203557133780112 L-19.09188309203678,19.091883092036785 L-39.262320318275876,21.987955867362967 L-41.5745789630079,17.220754456429045 L-26.81284833778301,3.1735097313616136 L-27,3.3065463576978537e-15 L-43.310485640414136,-12.214820243928326 L-41.57457896300791,-17.220754456429034 L-21.20355713378012,-16.715536631365513 L-19.091883092036788,-19.09188309203678 L-21.987955867362988,-39.26232031827586 L-17.220754456429066,-41.574578963007895 L-3.173509731361639,-26.812848337783006 L-4.95981953654678e-15,-27 L12.214820243928324,-43.310485640414136 L17.22075445642905,-41.5745789630079 L16.7155366313655,-21.203557133780127 L19.091883092036777,-19.091883092036788 L39.26232031827586,-21.98795586736299 L41.574578963007895,-17.220754456429066 L26.812848337783006,-3.1735097313616407 Z" fill="#79c0ff" opacity="0.8"><animateTransform attributeName="transform" type="rotate" from="0" to="360" dur="6s" repeatCount="indefinite"/></path><circle r="9" fill="#0d1117"/></g>
    
  <g transform="translate(400, 100)">
    <path d="M5.25,-35 L-8.75,1.75 L2.8000000000000003,1.75 L-5.25,35 L8.75,-1.75 L-2.8000000000000003,-1.75 Z" fill="#d29922"><animate attributeName="opacity" values="1;0.5;1;0.7;1" dur="0.6s" repeatCount="indefinite"/></path>
  </g>
    
    <g transform="translate(420, 130)">
      <rect width="200" height="110" rx="8" fill="#0d1117" stroke="#3fb950" stroke-width="1.5"/>
      <rect width="200" height="20" rx="8" fill="#3fb950" opacity="0.15"/>
      <text x="10" y="14" fill="#3fb950" font-size="10" font-family="'SF Mono', 'Fira Code', 'JetBrains Mono', 'Cascadia Code', Consolas, Monaco, 'Courier New', monospace">terminal</text>
      <text x="10" y="34" fill="#f0f6fc" font-size="10" font-family="'SF Mono', 'Fira Code', 'JetBrains Mono', 'Cascadia Code', Consolas, Monaco, 'Courier New', monospace">$ flame-graph analyze</text><text x="10" y="48" fill="#d29922" font-size="10" font-family="'SF Mono', 'Fira Code', 'JetBrains Mono', 'Cascadia Code', Consolas, Monaco, 'Courier New', monospace">→ Hotspot: db.query()</text><text x="10" y="62" fill="#f85149" font-size="10" font-family="'SF Mono', 'Fira Code', 'JetBrains Mono', 'Cascadia Code', Consolas, Monaco, 'Courier New', monospace">  42% of CPU time</text><text x="10" y="76" fill="#79c0ff" font-size="10" font-family="'SF Mono', 'Fira Code', 'JetBrains Mono', 'Cascadia Code', Consolas, Monaco, 'Courier New', monospace">→ Optimizing...</text><text x="10" y="90" fill="#3fb950" font-size="10" font-family="'SF Mono', 'Fira Code', 'JetBrains Mono', 'Cascadia Code', Consolas, Monaco, 'Courier New', monospace">✓ -65% latency</text>
      <rect x="10" y="104" width="8" height="12" fill="#3fb950"><animate attributeName="opacity" values="1;0;1" dur="1s" repeatCount="indefinite"/></rect>
    </g>
    
    <g transform="translate(40, 60)">
      <rect width="90" height="55" rx="8" fill="#161b22" stroke="#30363d"/>
      <text x="10" y="18" fill="#8b949e" font-size="9" font-family="'SF Mono', 'Fira Code', 'JetBrains Mono', 'Cascadia Code', Consolas, Monaco, 'Courier New', monospace">P99</text>
      <text x="10" y="38" fill="#3fb950" font-size="18" font-weight="600" font-family="'SF Mono', 'Fira Code', 'JetBrains Mono', 'Cascadia Code', Consolas, Monaco, 'Courier New', monospace">23<tspan font-size="10" fill="#8b949e">ms</tspan></text>
      <text x="75" y="38" fill="#f85149" font-size="14" font-family="'SF Mono', 'Fira Code', 'JetBrains Mono', 'Cascadia Code', Consolas, Monaco, 'Courier New', monospace">↓</text>
    </g>
    
    <g transform="translate(40, 125)">
      <rect width="90" height="55" rx="8" fill="#161b22" stroke="#30363d"/>
      <text x="10" y="18" fill="#8b949e" font-size="9" font-family="'SF Mono', 'Fira Code', 'JetBrains Mono', 'Cascadia Code', Consolas, Monaco, 'Courier New', monospace">P50</text>
      <text x="10" y="38" fill="#3fb950" font-size="18" font-weight="600" font-family="'SF Mono', 'Fira Code', 'JetBrains Mono', 'Cascadia Code', Consolas, Monaco, 'Courier New', monospace">8<tspan font-size="10" fill="#8b949e">ms</tspan></text>
      <text x="75" y="38" fill="#f85149" font-size="14" font-family="'SF Mono', 'Fira Code', 'JetBrains Mono', 'Cascadia Code', Consolas, Monaco, 'Courier New', monospace">↓</text>
    </g>
    
    <g transform="translate(150, 60)">
      <rect width="90" height="55" rx="8" fill="#161b22" stroke="#30363d"/>
      <text x="10" y="18" fill="#8b949e" font-size="9" font-family="'SF Mono', 'Fira Code', 'JetBrains Mono', 'Cascadia Code', Consolas, Monaco, 'Courier New', monospace">RPS</text>
      <text x="10" y="38" fill="#58a6ff" font-size="18" font-weight="600" font-family="'SF Mono', 'Fira Code', 'JetBrains Mono', 'Cascadia Code', Consolas, Monaco, 'Courier New', monospace">45<tspan font-size="10" fill="#8b949e">K</tspan></text>
      <text x="75" y="38" fill="#3fb950" font-size="14" font-family="'SF Mono', 'Fira Code', 'JetBrains Mono', 'Cascadia Code', Consolas, Monaco, 'Courier New', monospace">↑</text>
    </g>
    
    <g transform="translate(150, 125)">
      <rect width="90" height="55" rx="8" fill="#161b22" stroke="#30363d"/>
      <text x="10" y="18" fill="#8b949e" font-size="9" font-family="'SF Mono', 'Fira Code', 'JetBrains Mono', 'Cascadia Code', Consolas, Monaco, 'Courier New', monospace">CPU</text>
      <text x="10" y="38" fill="#79c0ff" font-size="18" font-weight="600" font-family="'SF Mono', 'Fira Code', 'JetBrains Mono', 'Cascadia Code', Consolas, Monaco, 'Courier New', monospace">34<tspan font-size="10" fill="#8b949e">%</tspan></text>
      <text x="75" y="38" fill="#f85149" font-size="14" font-family="'SF Mono', 'Fira Code', 'JetBrains Mono', 'Cascadia Code', Consolas, Monaco, 'Courier New', monospace">↓</text>
    </g>
    
  <g transform="translate(450, 260)">
    <rect width="150" height="8" rx="4" fill="#21262d"/>
    <rect width="63" height="8" rx="4" fill="#f85149"/>
    <g><rect x="154" y="-3" width="39" height="14" rx="3" fill="#161b22"/><text x="158" y="7" fill="#8b949e" font-size="9" font-family="'SF Mono', 'Fira Code', 'JetBrains Mono', 'Cascadia Code', Consolas, Monaco, 'Courier New', monospace">Before</text></g>
  </g>
    
  <g transform="translate(450, 285)">
    <rect width="150" height="8" rx="4" fill="#21262d"/>
    <rect width="22.5" height="8" rx="4" fill="#3fb950"/>
    <g><rect x="154" y="-3" width="33.5" height="14" rx="3" fill="#161b22"/><text x="158" y="7" fill="#8b949e" font-size="9" font-family="'SF Mono', 'Fira Code', 'JetBrains Mono', 'Cascadia Code', Consolas, Monaco, 'Courier New', monospace">After</text></g>
  </g>
    
    <g transform="translate(450, 310)">
      <rect x="-14" y="-14" width="126" height="28" rx="14" fill="#161b22" stroke="#3fb950" stroke-width="1" opacity="0.9"/>
      <circle r="10" fill="#3fb950" opacity="0.3"/>
      <text x="0" y="4" text-anchor="middle" fill="#3fb950" font-size="12" font-family="'SF Mono', 'Fira Code', 'JetBrains Mono', 'Cascadia Code', Consolas, Monaco, 'Courier New', monospace">✓</text>
      <text x="18" y="4" text-anchor="start" fill="#f0f6fc" font-size="10" font-family="'SF Mono', 'Fira Code', 'JetBrains Mono', 'Cascadia Code', Consolas, Monaco, 'Courier New', monospace">65% improvement</text>
    </g>
    
    <g>
      <rect x="273.4" y="327" width="153.20000000000002" height="19" rx="3" fill="rgba(13,17,23,0.85)"/>
      <text x="350" y="340" text-anchor="middle" fill="#d29922" font-size="11" font-family="'SF Mono', 'Fira Code', 'JetBrains Mono', 'Cascadia Code', Consolas, Monaco, 'Courier New', monospace">Performance Optimization</text>
    </g>
  
</svg>